<svg xmlns="http://www.w3.org/2000/svg" width="32" height="32" viewBox="0 0 23 23" fill="none">
                        <path
                            d="M18,1.25H6A4.756,4.756,0,0,0,1.25,6V18A4.756,4.756,0,0,0,6,22.75H18A4.756,4.756,0,0,0,22.75,18V6A4.756,4.756,0,0,0,18,1.25ZM21.25,18A3.254,3.254,0,0,1,18,21.25H6A3.254,3.254,0,0,1,2.75,18V6A3.254,3.254,0,0,1,6,2.75H18A3.254,3.254,0,0,1,21.25,6ZM15,8.75a.75.75,0,0,0-.75.75v5a.75.75,0,0,0,1.5,0v-5A.75.75,0,0,0,15,8.75ZM18,6.75a.75.75,0,0,0-.75.75v9a.75.75,0,0,0,1.5,0v-9A.75.75,0,0,0,18,6.75ZM6,9.25a.75.75,0,0,0-.75.75v4a.75.75,0,0,0,1.5,0V10A.75.75,0,0,0,6,9.25ZM9,7.25A.75.75,0,0,0,8.25,8v8a.75.75,0,0,0,1.5,0V8A.75.75,0,0,0,9,7.25ZM12,4.25a.75.75,0,0,0-.75.75V19a.75.75,0,0,0,1.5,0V5A.75.75,0,0,0,12,4.25Z"
                            fill="#34d399" />
                    </svg>